<?xml version="1.0" encoding="UTF-8"?>
<svg id="Layer_1" data-name="Layer 1" xmlns="http://www.w3.org/2000/svg" viewBox="0 0 1066.27 920.49">
  <defs>
    <style>
      .cls-1 {
        fill: none;
      }

      .cls-1, .cls-2, .cls-3 {
        stroke: #1fffcb;
        stroke-miterlimit: 10;
      }

      .cls-2 {
        fill: #fff;
      }

      .cls-4 {
        stroke-width: 0px;
      }

      .cls-4, .cls-3 {
        fill: #1fffcb;
      }
    </style>
  </defs>
  <path class="cls-3" d="M.27.49s477.5,71.5,266.5,222.5S.27,409.49.27,409.49"/>
  <path class="cls-2" d="M242.26,237.08S15.77,498.99,386.77,396.99"/>
  <path class="cls-3" d="M370.73,401.27s511.04-139.28,207.04,97.72"/>
  <path class="cls-1" d="M588.54,491.06s-205.68,142.93,82.77,85.43"/>
  <path class="cls-3" d="M668.38,576.95s565.39-93.68,347.39,342.54"/>
  <rect class="cls-3" x=".77" y="589.99" width="935" height="330"/>
  <rect class="cls-3" x="924.77" y="829.99" width="91" height="89"/>
  <path class="cls-4" d="M595.33,590.41c22.02-.51,44.05-.73,66.08-.67,6.23.02,12.47.06,18.7.12,1.54.02,1.97-2.01.76-2.8-3.7-2.4-5.72-6.48-9.12-9.17-1.99-1.58-4.41-.68-6.66-.23-2.57.52-5.15,1.02-7.72,1.5-10.5,1.97-21.06,3.64-31.66,5-6.02.77-12.05,1.44-18.08,2.01-1.91.18-1.92,3.18,0,3,10.33-.99,20.64-2.25,30.9-3.8,5.11-.77,10.2-1.61,15.28-2.52,2.58-.46,5.16-.94,7.74-1.44,1.29-.25,2.57-.5,3.86-.76,1.12-.23,2.56-.81,3.7-.71,1.06.09,1.92,1.4,2.59,2.14.81.9,1.58,1.83,2.38,2.75,1.58,1.82,3.25,3.51,5.28,4.82l.76-2.8c-22.03-.22-44.06-.16-66.08.19-6.23.1-12.47.22-18.7.36-1.93.04-1.93,3.04,0,3h0Z"/>
  <path class="cls-4" d="M629.43,588.22c3.6-.84,7.33-.77,11.01-.82,3.89-.05,7.78-.07,11.67-.06,7.69.02,15.39.16,23.08.41,1.66.05,2.08-2.62.4-2.95-1.04-.2-1.71-1.46-2.38-2.21-.88-.98-1.85-1.95-2.91-2.74-.95-.7-1.81-.65-2.93-.46-1.46.25-2.91.52-4.37.78-5.67,1.01-11.33,2.02-17,3.04-1.69.3-1.26,2.95.4,2.95,8.03-.03,16.07-.06,24.1-.1,1.39,0,2.17-2.16.76-2.8-1.19-.53-2.1-1.52-3.39-1.84-1.42-.35-2.74.2-4,.82-1.73.85-.21,3.44,1.51,2.59.8-.4,1.48-.73,2.32-.24.7.41,1.3.93,2.04,1.26l.76-2.8c-8.03.03-16.07.06-24.1.1l.4,2.95c5.42-.97,10.84-1.94,16.27-2.91,1.29-.23,2.59-.46,3.88-.69.32-.06.65-.12.97-.17.12-.02.9-.08.6-.15-.33-.09.39.41.49.49.23.2.45.4.66.6,1.56,1.48,2.85,3.99,5.11,4.43l.4-2.95c-7.86-.26-15.72-.4-23.58-.41-3.89,0-7.78.01-11.67.07s-7.6.05-11.31.92c-1.88.44-1.08,3.33.8,2.89h0Z"/>
  <rect class="cls-3" x="372.77" y="402.99" width="145" height="208"/>
  <rect class="cls-3" x=".77" y="422.99" width="372" height="166"/>
  <rect class="cls-3" x=".77" y="272.99" width="175" height="153"/>
  <path class="cls-4" d="M515.81,577.12c.19,1.29,1.02,2.25,1.93,3.11s1.47,1.98,2.32,2.93c.91,1.01,2.22,1.6,3.41,2.22,1.34.69,2.7,1.33,4.08,1.91,5.52,2.35,11.3,3.87,17.25,4.6v-3c-8.74-.27-17.37-2.1-26.13-1.8l1.5,1.5c-.02-1.25-.26-2.47-.56-3.68-.22-.89-.87-2.4-.25-3.2l-2.36.3c1.38,1.55,2.89,2.98,4.61,4.16,1.82,1.25,3.88,2.07,5.91,2.91l.4-2.95c-1.38-.03-2.71-.22-4.03-.62-1.01-.31-2.96-.85-3.53-1.82-.98-1.66-3.57-.15-2.59,1.51.92,1.57,2.88,2.33,4.51,2.92,1.8.66,3.72.96,5.64,1,1.82.03,1.87-2.35.4-2.95-1.8-.73-3.59-1.5-5.2-2.6-1.5-1.03-2.8-2.33-4.01-3.69-.71-.8-1.81-.41-2.36.3-1.77,2.29.36,5.86.39,8.4.01.79.68,1.53,1.5,1.5,8.76-.3,17.4,1.52,26.13,1.8,1.98.06,1.86-2.77,0-3-5.23-.64-10.39-2.01-15.26-4-2.25-.92-4.82-1.91-6.8-3.35-.9-.66-1.32-1.85-2.07-2.67s-1.79-1.39-1.96-2.56c-.27-1.9-3.16-1.09-2.89.8h0Z"/>
  <rect class="cls-3" x="518.77" y="471.99" width="58" height="27"/>
  <rect class="cls-3" x="518.77" y="499.99" width="20" height="32"/>
  <rect class="cls-3" x="539.77" y="499.99" width="19" height="14"/>
  <rect class="cls-3" x="518.77" y="532.99" width="9" height="12"/>
  <rect class="cls-3" x="539.77" y="514.99" width="8" height="8"/>
  <rect class="cls-3" x="559.77" y="499.99" width="8" height="6"/>
  <path class="cls-4" d="M517.32,545.42c-.43,4.99-.55,10-.38,15.01.07,1.96,2.82,1.9,3,0,.12-1.29.69-2.53,1.22-3.7s1.14-2.43,1.79-3.61c1.29-2.36,2.76-4.61,4.39-6.75.71-.93-.26-2.27-1.3-2.26-1.77.02-3.54.05-5.3.07-.8.01-1.52.68-1.5,1.5.04,1.64.07,3.28.11,4.92.03,1.46,2.05,2.08,2.8.76.7-1.23,1.28-2.5,1.8-3.81.3-.75-.33-1.65-1.05-1.85-.85-.23-1.55.29-1.85,1.05-.42,1.07-.93,2.1-1.5,3.1l2.8.76c-.04-1.64-.07-3.28-.11-4.92l-1.5,1.5c1.77-.02,3.54-.05,5.3-.07l-1.3-2.26c-1.74,2.28-3.3,4.69-4.65,7.22s-2.88,5.41-3.16,8.35h3c-.17-5.01-.05-10.02.38-15.01.07-.81-.74-1.5-1.5-1.5-.87,0-1.43.69-1.5,1.5h0Z"/>
  <path class="cls-4" d="M527.24,532.03c-.92,3.65-1.02,7.41-.35,11.11.23,1.27,2.16,1.45,2.74.36,2.16-4.06,5.31-7.39,9.23-9.74.57-.34.87-1.05.69-1.69-.19-.68-.78-1.03-1.45-1.1-2.55-.27-5.12-.36-7.69-.23-.68.03-1.34.04-1.89.49-.66.54-.72,1.28-.8,2.08-.13,1.31-.26,2.61-.39,3.92-.11,1.1,1.37,1.92,2.26,1.3,1.57-1.1,2.99-2.36,4.21-3.84.52-.62.61-1.51,0-2.12-.53-.53-1.6-.63-2.12,0-1.05,1.28-2.28,2.45-3.6,3.37l2.26,1.3c.08-.79.16-1.58.24-2.37.04-.38.08-.76.11-1.14.02-.21.04-.41.06-.62.04-.37.07-.05-.01.07l-.54.54c-.09.06-.55.07-.08.05.14,0,.27-.01.41-.02.38-.02.75-.03,1.13-.04.72-.02,1.44-.02,2.16,0,1.44.03,2.87.13,4.3.28l-.76-2.8c-4.33,2.59-7.94,6.35-10.31,10.81l2.74.36c-.57-3.14-.43-6.42.35-9.52.2-.78-.26-1.63-1.05-1.85s-1.65.26-1.85,1.05h0Z"/>
  <path class="cls-4" d="M519.94,553.41c1.93,0,1.93-3,0-3s-1.93,3,0,3h0Z"/>
  <path class="cls-4" d="M545.52,523.06c1.93,0,1.93-3,0-3s-1.93,3,0,3h0Z"/>
  <path class="cls-4" d="M532.55,535.01s-.22.33-.11.18-.14.17-.14.16c-.14.16-.28.32-.42.47-.31.34-.62.69-.92,1.03-.62.69-1.06,1.4-1.43,2.24-.15.34-.29.68-.47,1-.1.18-.2.35-.32.51.09-.12.1-.12,0-.01-.08.08-.16.16-.24.24-.74.69-1.49,1.36-1.72,2.4-.17.76.23,1.66,1.05,1.85.76.17,1.66-.23,1.85-1.05.01-.05.12-.35.04-.17-.08.17.05-.06.07-.09.06-.14-.16.15.03-.04.06-.06.11-.12.17-.18.3-.3.65-.56.93-.88.58-.65.93-1.38,1.27-2.17.15-.34.3-.67.49-.99.04-.07.09-.14.13-.2.2-.3-.11.09.05-.07.15-.15.28-.32.43-.48.64-.72,1.37-1.42,1.88-2.24.41-.67.17-1.68-.54-2.05s-1.61-.18-2.05.54h0Z"/>
  <path class="cls-4" d="M538.83,523.97c-.21,1.22-.44,2.44-.61,3.67-.1.69-.19,1.39-.23,2.09-.02.44-.05.9.19,1.29.36.58,1.1.95,1.78.73.73-.24,1.16-.87,1.55-1.48.01-.02.12-.18.12-.18,0,0-.19.21-.07.09.08-.08.15-.16.23-.24.04-.04.08-.07.12-.11.22-.2-.04.01-.05.03.04-.08.23-.17.31-.23,1.01-.76,1.78-1.73,2.61-2.68.4-.46.79-.93,1.22-1.36.2-.21.41-.41.64-.6.04-.04.09-.07.13-.11.16-.14-.29.19.02,0,.13-.09.26-.17.39-.25.64-.38.9-1.19.61-1.87s-1.06-1.11-1.77-.87c-.97.33-1.99.5-3,.66-.25.04-.51.06-.76.12-.51.12-.88.41-1.18.82-.29.39-.52.82-.73,1.26-.33.71-.23,1.65.54,2.05.66.35,1.7.22,2.05-.54.1-.22.21-.44.33-.65.06-.11.12-.21.19-.31l.07-.1c.09-.15.09-.13,0,.04l-.66.39c.29-.12.65-.13.96-.18.34-.05.68-.1,1.01-.16.67-.12,1.34-.27,1.99-.49l-1.16-2.74c-1.55.92-2.66,2.4-3.82,3.74-.29.33-.56.67-.87.98-.07.07-.15.15-.23.22-.04.04-.34.29-.04.04-.14.12-.3.22-.44.33-.46.35-.82.69-1.16,1.15-.12.16-.22.33-.33.5-.02.03-.04.06-.06.09-.06.09-.04.06.07-.09,0,.11-.43.28.02.02l.76-.2h-.05c.43.25.86.49,1.3.74l-.03-.04.2.76c-.04-.46.03-.96.08-1.41.01-.11.03-.23.04-.34.01-.11.01-.09,0,.06l.02-.13c.04-.25.07-.49.11-.74.16-.98.33-1.95.5-2.93.13-.77-.2-1.65-1.05-1.85-.73-.17-1.7.22-1.85,1.05h0Z"/>
  <path class="cls-4" d="M547.74,515.56c.06,2.11-.14,3.86-.67,5.85-.16.62.1,1.38.69,1.69.54.28,1.41.3,1.82-.23.59-.76,1.18-1.51,1.9-2.15s1.47-1.35,2.17-2.08c.33-.35.67-.7,1.02-1.03.07-.07.15-.14.23-.2.08-.07.08-.07,0,0l.13-.08c.21-.12.41-.23.63-.33.93-.45,1.81-1.01,2.7-1.54.64-.39.9-1.19.61-1.87s-1.03-1.03-1.77-.87c-.6.13-1.18.39-1.77.57s-1.21.33-1.82.46c-.66.13-1.01.17-1.62.24-.66.07-1.53.09-2.11.48s-.83,1-.69,1.69c.02.1.14.55.25.58l-.02-.07c-.06-.41.1-.75.47-1-.67.41-.98,1.36-.54,2.05s1.34.98,2.05.54c.5-.31.83-.75.95-1.33.07-.36.06-.7-.04-1.06-.06-.17-.13-.34-.21-.51-.09-.19-.1-.19-.02-.01l-.69,1.69c-.25.17.05.01.18-.01.05-.01.25-.04.09-.02.3-.04.61-.06.91-.1.67-.08,1.34-.18,2-.32.56-.12,1.11-.26,1.66-.42.59-.18,1.17-.44,1.77-.57l-1.16-2.74c-.89.53-1.76,1.09-2.7,1.54-.99.48-1.75,1.22-2.5,2-.7.73-1.4,1.43-2.16,2.1s-1.4,1.45-2.02,2.25l2.51,1.46c.57-2.16.84-4.41.78-6.65-.02-.78-.67-1.54-1.5-1.5s-1.52.66-1.5,1.5h0Z"/>
  <path class="cls-4" d="M558.7,507.16c0,.06-.08.33-.01.16.08-.19-.02.1-.03.16-.03.2-.07.4-.11.6-.09.5-.18,1.02-.21,1.53-.03.38-.02.77-.04,1.15,0,.03-.03.28-.02.28-.03-.01.06-.34,0,0-.04.21-.1.4-.18.59-.24.58.16,1.41.69,1.69.61.32,1.31.24,1.82-.23s.93-.93,1.36-1.44c.22-.26.44-.52.7-.75.13-.11.16-.14.01-.02.06-.05.12-.09.18-.14.15-.11.3-.23.45-.34.55-.41,1.1-.84,1.66-1.24.27-.19.55-.38.83-.55.13-.08.27-.16.41-.23.09-.04.18-.08.26-.13.19-.1-.33.13.02,0,.7-.27,1.18-.86,1.07-1.65s-.72-1.25-1.47-1.3c-.43-.03-.87.06-1.28.17-.16.04-.31.08-.47.11-.21.05.25,0,.04,0-.1,0-.2.01-.3.01-.79.02-1.55-.03-2.33.15s-1.29,1.09-1.05,1.85c.26.8,1.03,1.24,1.85,1.05.08-.02.16-.04.24-.05-.2.02-.21.03-.04.01.16,0,.32-.01.48-.01.32,0,.65.02.97,0,.41-.02.83-.07,1.24-.18.16-.04.31-.08.47-.12.17-.03.16-.03-.04,0,.08,0,.16,0,.24,0l-.4-2.95c-1.47.57-2.66,1.52-3.91,2.45-.65.49-1.31.94-1.84,1.57-.47.56-.95,1.09-1.48,1.58l2.51,1.46c.35-.85.3-1.8.35-2.7,0-.1.01-.19.02-.29.02-.3-.03.17,0-.02.04-.22.07-.44.11-.66.1-.53.19-1.06.23-1.6.06-.78-.73-1.53-1.5-1.5-.87.04-1.43.66-1.5,1.5h0Z"/>
  <path class="cls-4" d="M567.78,499.69c-.4,1.68-.58,3.42-.51,5.15.02.61.36,1.13.92,1.37s1.22.13,1.64-.31c.95-1,1.86-2.04,2.9-2.94.49-.43,1-.83,1.51-1.23.06-.05.15-.15.23-.18-.08.03-.2.15-.04.04.12-.09.23-.17.36-.25.14-.09.29-.17.44-.25.04-.02.27-.11.08-.04-.21.08.12-.04.13-.05.74-.26,1.31-1.03,1.05-1.85-.24-.74-1.05-1.31-1.85-1.05-.36.12-.72.2-1.1.26-.23.04,0-.04.06,0-.04-.02-.23.03-.28.03-.19.02-.38.04-.57.06-.82.08-1.66.16-2.46.42-.75.24-1.3,1.05-1.05,1.85.24.75,1.05,1.3,1.85,1.05.36-.12.73-.19,1.1-.25.24-.04-.03.04-.06,0,.02.02.24-.03.28-.03.19-.02.38-.04.57-.06.82-.08,1.66-.17,2.45-.43l-.8-2.89c-1.47.53-2.67,1.57-3.85,2.58-1.11.95-2.08,2.04-3.08,3.1l2.56,1.06c-.03-.78-.01-1.55.06-2.33.01-.15,0-.39.06-.54-.03.18-.03.22-.01.1,0-.04.01-.08.02-.12.01-.1.03-.2.05-.3.07-.39.15-.78.24-1.17.18-.76-.24-1.66-1.05-1.85s-1.65.23-1.85,1.05h0Z"/>
  <path class="cls-4" d="M235.27,246.54c3.61-2.72,7.17-5.51,10.67-8.37.63-.51.53-1.59,0-2.12-.62-.62-1.49-.51-2.12,0-3.3,2.7-6.66,5.34-10.07,7.9-.65.49-.98,1.3-.54,2.05.37.64,1.4,1.03,2.05.54h0Z"/>
  <rect class="cls-3" x="174.77" y="268.99" width="22" height="32"/>
  <rect class="cls-3" x="175.77" y="301.99" width="10" height="20"/>
  <rect class="cls-3" x="186.77" y="301.99" width="6" height="7"/>
  <path class="cls-4" d="M183.1,321.85c-1.68,4.39-4.08,8.48-5.47,12.98-.67,2.16-.89,4.43-1.75,6.53-.41,1.01-.73,1.97-.91,3.05s-.29,2.04-.82,2.95l2.8.76c-.07-4.32.19-8.65.34-12.97s.96-8.27.96-12.48l-1.5,1.5c2.25.14,4.48-.07,6.67-.58l-1.46-2.51c-2.47,2.21-3.92,5.21-5.35,8.14-.76,1.55-1.78,3.32-2.1,5.03-.36,1.91,1.45,2.04,2.4,3.25.66.84,1.84.38,2.36-.3.65-.86.5-2.05.57-3.07.08-1.19.22-2.38.38-3.56.32-2.41.68-4.81.8-7.25.06-1.22-1.3-1.76-2.26-1.3s-1.68,1.38-1.84,2.46c-.29,1.89,2.6,2.7,2.89.8.07-.44.06-.47.47-.67l-2.26-1.3c-.1,2.15-.4,4.28-.69,6.41-.13.99-.27,1.98-.37,2.98-.05.47-.09.94-.12,1.41-.03.41.09,1.23-.16,1.56l2.36-.3c-.66-.84-1.45-1.21-2.32-1.76l.74,1.3c0-1.03.91-2.43,1.35-3.34.49-1.05,1.01-2.09,1.53-3.11,1-1.94,2.1-3.78,3.75-5.25,1.17-1.05-.08-2.83-1.46-2.51-1.94.46-3.88.6-5.88.48-.81-.05-1.5.73-1.5,1.5,0,4.2-.82,8.29-.96,12.48s-.4,8.65-.34,12.97c.02,1.48,2.03,2.05,2.8.76,1.09-1.85.96-4.01,1.73-5.98.88-2.25,1.26-4.53,1.93-6.84,1.36-4.66,3.87-8.89,5.6-13.41.69-1.81-2.21-2.59-2.89-.8h0Z"/>
  <path class="cls-4" d="M176.44,328.77c1.93,0,1.93-3,0-3s-1.93,3,0,3h0Z"/>
  <path class="cls-4" d="M190.14,308.09c-1.39,1.75-2.47,3.62-3.34,5.68-.81,1.94-1.61,3.92-1.92,6.01h2.89c-.11-.7.05-1.45.17-2.13.17-.92.3-1.85.35-2.79.04-.84.05-1.69.08-2.54.01-.42.02-.84.03-1.26,0-.24.01-.49.02-.73v-.31c.04-.33,0-.28-.09.15l-.54.54c-.08.06.09-.03.16-.04.13-.01.3,0,.42.01.8.15,1.62-.22,1.85-1.05.2-.73-.25-1.7-1.05-1.85-1.43-.26-3.46-.13-3.7,1.68-.16,1.21-.09,2.48-.13,3.7-.03,1.13-.04,2.27-.24,3.39-.24,1.36-.45,2.65-.23,4.03s2.68,1.44,2.89,0c.29-1.95,1.01-3.82,1.77-5.63.7-1.68,1.6-3.3,2.73-4.73.5-.63.62-1.5,0-2.12-.52-.52-1.62-.64-2.12,0h0Z"/>
  <path class="cls-4" d="M194.92,299.34c-1.5,1.88-2.97,3.84-3.59,6.21-.2.76.25,1.66,1.05,1.85s1.63-.24,1.85-1.05c.06-.24.14-.49.22-.72.05-.13.1-.26.15-.4.07-.18-.12.28-.04.1.03-.06.05-.11.08-.17.22-.47.47-.93.74-1.37s.56-.85.86-1.26c.08-.1.15-.21.23-.31.05-.06.1-.13.14-.19.03-.04.17-.22.03-.04s0,0,.03-.04c.04-.05.08-.1.12-.15.09-.11.18-.22.27-.34.26-.32.44-.63.44-1.06,0-.37-.16-.81-.44-1.06-.54-.5-1.6-.65-2.12,0h0Z"/>
  <rect class="cls-3" x="196.77" y="264.99" width="8" height="22"/>
  <rect class="cls-3" x="204.77" y="259.99" width="10" height="13"/>
  <rect class="cls-3" x="215.77" y="246.99" width="7" height="14"/>
  <path class="cls-4" d="M212.36,272.33c-1.72,2.05-3.46,4.09-5.19,6.14-.85,1.01-1.47,1.95-1.88,3.22-.37,1.14-1.03,2.14-1.69,3.13l2.8.76c-.04-2.46.24-5.09.96-7.45.29-.97.72-1.95,1.41-2.71.27-.29.49-.5.85-.56.7-.11,1.4-.06,2.07-.32.75-.3,1.28-1.01,1.05-1.85-.21-.75-1.07-1.3-1.85-1.05-1.69.56-3.13,1.67-4.05,3.2-.43.72-.87,1.68-.88,2.55-.03,1.32,1.17,2.19,2.41,1.8.83-.26,1.68-.95,2.3-1.53s1.2-1.41,1.42-2.29c.3-1.19.01-2.32-1.02-3.04-.7-.49-1.55-.75-2.39-.86-1.94-.26-3.95.41-5.3,1.84-.82.87-.3,2.68,1.06,2.56,1.05-.09,2.01-.47,2.72-1.28.54-.61.6-1.52,0-2.12-.55-.55-1.58-.61-2.12,0-.19.21-.39.38-.6.4l1.06,2.56c.91-.97,2.25-1.28,3.49-.82.07.03.16.11.34.17.2.15.21.12.02-.09-.08-.06-.13-.14-.14-.24-.02,0-.05.28-.05.26-.06.16-.16.32-.26.45-.11.14-.45.47-.62.61-.15.11-.3.22-.46.32-.1.07-.21.13-.31.19-.26.13-.2.14.18.01l.76.2.1.08.39.66c-.04.46-.03.53.03.23.03-.12.06-.23.1-.34.07-.22.11-.3.19-.47.17-.32.38-.65.57-.87.53-.61,1.15-1.03,1.85-1.26l-.8-2.89c-.63.25-1.3.18-1.97.3-.77.14-1.45.54-2.01,1.07-1.07,1.01-1.77,2.38-2.26,3.74-.45,1.26-.68,2.59-.86,3.92-.22,1.62-.42,3.25-.39,4.9.03,1.54,1.98,1.98,2.8.76.69-1.04,1.34-2.08,1.79-3.25.18-.46.27-.95.5-1.38.25-.48.62-.88.97-1.3,1.68-1.98,3.36-3.96,5.03-5.95.52-.62.61-1.51,0-2.12-.53-.53-1.6-.62-2.12,0h0Z"/>
  <path class="cls-4" d="M203.08,286.24c-.48.92-1.06,1.75-1.8,2.48-.78.77-1.68,1.38-2.25,2.35s-.98,2.13-1.45,3.18c-.52,1.17-1.05,2.34-1.57,3.51l2.74.36c-.52-2.12-.4-4.32-.1-6.47.03-.21.38-2.83.48-2.83-.25.09-.32.16-.22.21.06.04.14.04.22,0,.22.06.65,0,.88,0,.59,0,1.17,0,1.76.01l-1.06-2.56c-1.53,1.3-3.12,2.84-3.42,4.93-.17,1.16.64,2.08,1.85,1.85.65-.13,1.41-.4,2.08-.4l-1.3-.74.09.13-.2-.76c-.07.75-.79,1.71-1.19,2.34-.55.85-1.17,1.65-1.76,2.46s-1.16,1.67-1.67,2.57-.96,1.77-1.63,2.53c-1.27,1.45.84,3.58,2.12,2.12,1.05-1.19,1.74-2.58,2.56-3.93s1.76-2.47,2.62-3.72c.8-1.17,1.85-2.73,1.93-4.18.05-.96-.64-1.82-1.64-1.82-.91,0-1.91.33-2.8.5l1.85,1.85c.23-1.59,1.48-2.62,2.65-3.6,1.03-.87.16-2.55-1.06-2.56-.78,0-1.57-.01-2.35-.02-.64,0-1.29,0-1.87.31-1.36.7-1.45,2.3-1.66,3.63-.47,2.98-.76,5.97-.04,8.94.29,1.17,2.2,1.56,2.74.36.5-1.13,1.01-2.25,1.51-3.38s.89-2.3,1.51-3.32c.49-.8,1.41-1.33,2.05-2.01.79-.84,1.46-1.79,2-2.81.9-1.71-1.69-3.22-2.59-1.51h0Z"/>
  <path class="cls-4" d="M208.38,282.05c1.93,0,1.93-3,0-3s-1.93,3,0,3h0Z"/>
  <path class="cls-4" d="M220.79,259.6c-1.12,1.8-2.32,3.55-3.59,5.24-.58.76-1.19,1.53-1.83,2.3-.77.93-1.7,1.8-1.7,3.1l2.8-.76c.06.15-.06-.24-.07-.28-.1-.39-.02.14-.04-.27,0-.17-.01-.34,0-.51,0-.04.04-.47.02-.28.09-.66.31-1.31.53-1.93.5-1.4,1.02-2.76,1.04-4.26l-1.9,1.45c1.11.23,2.27.21,3.34-.2l-1.69-2.2c-.33.72-.65,1.43-.98,2.15s-.21,1.61.54,2.05c.64.38,1.71.2,2.05-.54s.65-1.43.98-2.15c.25-.56.29-1.16-.12-1.67-.35-.43-1.01-.75-1.58-.54-.64.24-1.21.31-1.74.2-.95-.2-1.89.42-1.9,1.45,0,.66-.17,1.3-.42,2.03s-.52,1.39-.74,2.1c-.52,1.66-.59,3.3.09,4.92.25.6,1.11.85,1.69.69.63-.17,1.1-.79,1.1-1.45,0,.06-.05.11-.07.15.05-.1.11-.19.17-.28-.08.12.05-.06.07-.08.08-.09.16-.19.24-.28.32-.37.63-.75.94-1.13.68-.84,1.34-1.69,1.99-2.56,1.19-1.6,2.32-3.25,3.37-4.95.43-.69.15-1.65-.54-2.05s-1.62-.15-2.05.54h0Z"/>
  <path class="cls-4" d="M224.48,259.9c.43-2.03,2.1-3.83,3.5-5.36,1.6-1.73,3.35-3.32,5.07-4.93.59-.55.56-1.56,0-2.12-.59-.59-1.53-.55-2.12,0-1.82,1.7-3.66,3.37-5.33,5.22s-3.49,3.93-4.01,6.39c-.17.79.23,1.62,1.05,1.85.75.21,1.68-.25,1.85-1.05h0Z"/>
  <path class="cls-4" d="M224.43,255.79c.06-.08.12-.16.18-.25l-.23.3c.33-.43.71-.82,1.12-1.18.15-.14.25-.3.31-.48.09-.18.14-.37.13-.58,0-.21-.04-.4-.13-.58-.06-.19-.16-.35-.31-.48l-.3-.23c-.23-.14-.49-.2-.76-.2l-.4.05c-.25.07-.47.2-.66.39-.59.51-1.09,1.1-1.54,1.73-.11.17-.17.36-.18.56-.04.2-.04.4.03.6.05.2.14.37.27.51.11.16.25.29.42.39l.36.15c.27.07.53.07.8,0l.36-.15c.23-.13.4-.31.54-.54h0Z"/>
  <rect class="cls-3" x="320.77" y="412.99" width="57" height="13"/>
  <rect class="cls-3" x="175.77" y="401.99" width="9" height="22"/>
  <rect class="cls-3" x="180.77" y="418.99" width="41" height="4"/>
  <rect class="cls-3" x="185.77" y="409.99" width="10" height="9"/>
  <path class="cls-4" d="M217.52,417.79c-1.73-.04-3.49-.83-5.11-1.36-1.71-.56-3.41-1.14-5.1-1.74-3.45-1.22-6.86-2.53-10.24-3.93-1.56-.64-2.68,2.01-1.16,2.74-.34-.57-.48-.66-.4-.26.02.2.04.41.05.61.03.41.05.81.07,1.22.03.68-.03,1.36,0,2.04.09,1.73,1.45,1.88,2.88,2.03,3.11.32,6.22.63,9.33.95,1.74.18,1.94-2.46.4-2.95-3.1-.98-6.19-1.96-9.29-2.95-1.84-.59-2.63,2.31-.8,2.89,3.1.98,6.19,1.96,9.29,2.95l.4-2.95c-1.73-.18-3.46-.35-5.18-.53-.83-.08-1.66-.17-2.49-.25s-1.78-.05-2.55-.3l.9.69.12.42c0-.2.01-.41.01-.61,0-.27,0-.54,0-.82-.01-.68-.04-1.36-.1-2.04-.08-1-.08-2.23-1.12-2.73l-1.16,2.74c3.5,1.44,7.04,2.8,10.61,4.06,1.76.62,3.52,1.21,5.29,1.79s3.49,1.24,5.34,1.28,1.93-2.95,0-3h0Z"/>
  <path class="cls-4" d="M184.83,405.24c.27.1-.13-.08.03,0,.07.04.14.07.21.1.16.08.31.17.46.27.07.04.13.09.2.13,0,0,.31.22.14.09-.15-.11.06.05.08.07.08.06.15.13.23.19.55.47,1.07.99,1.61,1.47,1.3,1.14,2.76,2.09,4.29,2.9l.36-2.74c-.39.11.14-.05.14.03,0,0-.43-.09-.47-.11-.28-.07-.57-.13-.85-.19-.68-.13-1.36-.23-2.05-.3-1.2-.13-2.41-.14-3.62-.05l1.3,2.26c.33-.78.6-1.55.73-2.39.08-.57.11-1.1-.18-1.63s-.88-.9-1.51-.88c-.78.02-1.54.68-1.5,1.5s.66,1.52,1.5,1.5h.07c-.25-.07-.5-.14-.76-.21l-.52-.68-.03-.23c0,.13,0,.05,0-.04-.04.21-.08.42-.13.62-.04.18-.1.36-.15.54-.03.09-.06.18-.09.27-.02.05-.14.34-.03.1-.22.51-.3,1.01,0,1.51.25.43.78.78,1.3.74,1.25-.09,2.51-.08,3.76.07.02,0,.48.07.18.02.14.02.29.04.43.07.33.06.67.12,1,.19.77.17,1.49.38,2.28.16,1.2-.33,1.52-2.13.36-2.74-.75-.4-1.48-.82-2.19-1.29-.17-.11-.34-.23-.51-.35-.09-.07-.19-.13-.28-.2-.02-.02-.24-.18-.12-.09.14.11-.14-.12-.17-.14-.07-.06-.14-.12-.21-.18-.16-.14-.32-.28-.48-.42-1.24-1.13-2.41-2.28-4.02-2.87-.74-.27-1.68.3-1.85,1.05-.19.85.26,1.55,1.05,1.85h0Z"/>
  <path class="cls-4" d="M174.51,389.93c.81,2.32,1.44,4.81,2.89,6.82.69.96,1.41,1.92,2.13,2.86s1.5,1.9,2.62,2.4v-2.59c.37-.04.42-.07.15-.06h-.22c-.22-.02-.45-.04-.67-.05-.45-.03-.9-.05-1.34-.08-.77-.04-1.75.02-2.45-.14l.66.39-.08-.09.39.66c-.21-.54-.38-1.11-.34-1.69.05-.73.19-1.36-.05-2.08l-1.85,1.85c.15.03.19.04.26.09.21.18.41.39.6.59.33.36.65.73.94,1.12l2.05-2.05c-.15-.09-.16-.1-.35-.28-.2-.19-.41-.39-.61-.58-.38-.37-.76-.75-1.11-1.15-.6-.68-1.16-1.47-1.45-2.3-.27-.76-1.03-1.27-1.85-1.05-.74.2-1.32,1.08-1.05,1.85.46,1.32,1.19,2.44,2.1,3.49.8.92,1.74,1.99,2.8,2.62.57.34,1.35.23,1.82-.23.44-.44.62-1.29.23-1.82-.88-1.19-2.03-2.88-3.59-3.18-1.05-.2-2.23.68-1.85,1.85.12.36-.01.78-.05,1.18-.05.55.03,1.11.16,1.65.1.43.21.92.43,1.3.39.67,1.04.83,1.76.88.97.07,1.94.11,2.91.17s2.3.36,3.16-.24,1.12-2.09,0-2.59c-.75-.34-1.27-.96-1.75-1.61-.68-.91-1.37-1.81-2.03-2.74-1.24-1.76-1.78-3.93-2.48-5.94-.27-.76-1.03-1.27-1.85-1.05-.74.2-1.32,1.08-1.05,1.85h0Z"/>
  <path class="cls-4" d="M222.31,421.93c5.04.79,10.05,1.48,15.17,1.45s10.27.41,15.41.45c5.23.04,10.47-.35,15.69-.65s10.51-.65,15.77-1c1.92-.13,1.93-3.13,0-3-10.29.68-20.66,1.67-30.97,1.65-4.99,0-9.95-.5-14.95-.46s-10.21-.54-15.32-1.34c-1.89-.29-2.7,2.6-.8,2.89h0Z"/>
  <path class="cls-4" d="M221.75,423.48c.86.15,1.73.24,2.61.22.39,0,.78-.16,1.06-.44.26-.26.46-.69.44-1.06s-.14-.79-.44-1.06-.66-.44-1.06-.44c-.59,0-1.19-.03-1.78-.1l.4.05c-.14-.02-.29-.04-.43-.07-.2-.06-.4-.07-.6-.03-.2,0-.39.07-.56.18-.31.18-.61.54-.69.9-.09.38-.07.81.15,1.16.2.31.52.63.9.69h0Z"/>
  <path class="cls-4" d="M276.95,421.96c3.57-.55,7.2-.51,10.78-.92s7.24-.94,10.85-1.41c7.22-.95,14.51-1.74,21.58-3.57,1.87-.48,1.08-3.38-.8-2.89-7.13,1.84-14.48,2.63-21.76,3.59-3.52.47-7.04.98-10.57,1.36s-7.27.4-10.88.95c-1.9.29-1.09,3.18.8,2.89h0Z"/>
  <path class="cls-4" d="M318.75,414c-1.28,2.59-1.61,5.4-.89,8.21l1.45-1.9c-3.19.22-6.41-.1-9.6-.21s-6.4-.17-9.6-.16c-6.49.02-12.97.3-19.43.83l.4,2.95c2.79-1.13,6.03-1.21,9-1.61s6.2-.83,9.32-1.07c6.3-.47,12.62-.41,18.89-1.25,1-.13,1.31-1.46.9-2.2-.18-.33-.37-.66-.55-.99-.6-1.07-2.5-.93-2.74.36-.1.53-.17,1.02-.07,1.57.03.17.32,1.42.32.9l.44-1.06c-.36.41-1.81.53-2.3.58-1.9.2-1.92,3.2,0,3,1.31-.14,2.87-.34,3.99-1.08.44-.29.76-.72.84-1.24.11-.68-.44-1.26-.33-1.87l-2.74.36c.18.33.37.66.55.99l.9-2.2c-6.32.85-12.72.68-19.07,1.22-3.03.26-6.05.69-9.07,1.09s-6.26.48-9.07,1.62c-1.42.57-1.44,3.1.4,2.95,6.46-.53,12.94-.81,19.43-.83,3.2-.01,6.4.04,9.6.16s6.41.44,9.6.21c.97-.07,1.7-.9,1.45-1.9-.51-2-.34-4.04.59-5.9.85-1.72-1.73-3.25-2.59-1.51h0Z"/>
  <path class="cls-4" d="M326.03,414.54c1.73-.76,3.67-.79,5.52-.99s3.7-.51,5.53-.88c4.02-.81,8.02-1.71,12.02-2.6,7.97-1.77,15.9-3.68,23.73-6.01l-1.46-2.51c-2.09,1.65-2.05,3.98-2.05,6.41,0,1.66-.46,6.38,2.67,5.3.63-.22,1.11-.76,1.1-1.45,0-.38,0-.76,0-1.15,0-.95-.96-1.74-1.9-1.45-2.53.79-4.96,1.36-7.63,1.34-2.81-.02-5.62-.24-8.43-.26-5.64-.04-11.28.28-16.89.93-1.9.22-1.92,3.22,0,3,5.77-.67,11.57-.98,17.38-.92,2.8.03,5.61.27,8.41.26s5.34-.63,7.96-1.45l-1.9-1.45c0,.38,0,.76,0,1.15l1.1-1.45c.76-.26,1.12,1.38,1.12-.18,0-.33,0-.66,0-.99,0-.83,0-1.65,0-2.48,0-1.32.09-2.2,1.17-3.05,1.21-.96-.11-2.91-1.46-2.51-7.98,2.38-16.08,4.31-24.2,6.12-4,.89-7.99,1.8-12.01,2.59-3.73.73-7.8.54-11.31,2.08-1.76.78-.24,3.36,1.51,2.59h0Z"/>
  <path class="cls-4" d="M348.76,411.69c3.79-.38,7.57-.84,11.34-1.36,1.77-.25,3.6-.41,5.33-.91s3.32-1.19,4.92-1.91c1.18-.53.84-2.48-.36-2.74-1.01-.22-1.76.02-2.71.36-.8.29-1.63.42-2.44.65s-1.58.67-2.39,1c-.89.37-1.86.54-2.79.76-1.35.33-1.35,2.04-.36,2.74,1.75,1.25,4.14,1.08,6.19,1.05,1.07-.01,2.43.09,3.43-.32.49-.2.84-.56,1.02-1.07.07-.19.11-.38.12-.59,0-.12-.01-.24-.02-.35,0-.54-.37-.37-1.1.54,1.8.7,2.58-2.2.8-2.89-.73-.29-1.57-.03-2.1.53-.27.28-.45.63-.54,1.01-.06.26.04.74-.05.97l.69-.9c-.24.15-1.23.06-1.63.07-.76.02-1.51.02-2.27,0-1.08-.01-2.12,0-3.02-.64l-.36,2.74c.77-.19,1.56-.35,2.31-.59s1.45-.66,2.19-.96c.67-.27,1.38-.38,2.07-.56.53-.13,1.65-.78,2.15-.67l-.36-2.74c-1.47.66-2.99,1.29-4.56,1.71s-3.32.58-4.97.81c-3.51.49-7.02.9-10.54,1.25-1.9.19-1.92,3.19,0,3h0Z"/>
</svg>